<svg width="1365" height="89" viewBox="0 0 1365 89" fill="none" xmlns="http://www.w3.org/2000/svg">
<path d="M1330.46 59.6255L1329 84H1361L1359.54 59.6255H1330.46ZM1332.82 62.1885H1357.18L1358.33 81.437H1331.67L1332.82 62.1885H1332.82Z" fill="black"/>
<path d="M1350.59 59.7889C1350.59 56.8944 1348.3 54.5398 1345.49 54.5398C1342.67 54.5398 1340.38 56.8944 1340.38 59.7889H1337.91C1337.91 55.4941 1341.31 52 1345.49 52C1349.66 52 1353.06 55.4941 1353.06 59.7889H1350.59Z" fill="black"/>
<path d="M1345 79C1345 73.4772 1349.48 69 1355 69C1360.52 69 1365 73.4772 1365 79C1365 84.5228 1360.52 89 1355 89C1349.48 89 1345 84.5228 1345 79Z" fill="#FFFFEF"/>
<path d="M1358.59 81.1484C1358.59 82.8411 1358.3 84.099 1357.72 84.9219C1357.14 85.7448 1356.24 86.1562 1355.01 86.1562C1353.79 86.1562 1352.9 85.7552 1352.31 84.9531C1351.73 84.1458 1351.43 82.9427 1351.41 81.3438V79.4141C1351.41 77.7422 1351.7 76.5 1352.27 75.6875C1352.85 74.875 1353.76 74.4688 1354.99 74.4688C1356.22 74.4688 1357.12 74.862 1357.7 75.6484C1358.27 76.4297 1358.57 77.638 1358.59 79.2734V81.1484ZM1357.14 79.1719C1357.14 77.9479 1356.97 77.0573 1356.62 76.5C1356.28 75.9375 1355.74 75.6562 1354.99 75.6562C1354.25 75.6562 1353.71 75.9349 1353.38 76.4922C1353.04 77.0495 1352.86 77.9062 1352.85 79.0625V81.375C1352.85 82.6042 1353.03 83.513 1353.38 84.1016C1353.74 84.6849 1354.28 84.9766 1355.01 84.9766C1355.72 84.9766 1356.25 84.7005 1356.59 84.1484C1356.94 83.5964 1357.12 82.7266 1357.14 81.5391V79.1719Z" fill="#56593D"/>
</svg>
